{"title":"X-Men 2011 S01E03 HDTV XviD-LMAO[ettv]","uid":6796399,"size":183479925,"categoryP":"video","categoryS":"tv_shows","magnet":"?xt=urn:btih:c43f2df91ceca94e6d4f7f6ffa200393397382ab&amp;dn=X-Men+2011+S01E03+HDTV+XviD-LMAO%5Bettv%5D&amp;tr=udp%3A%2F%2Ftracker.openbittorrent.com%3A80&amp;tr=udp%3A%2F%2Fopen.demonii.com%3A1337&amp;tr=udp%3A%2F%2Ftracker.coppersurfer.tk%3A6969&amp;tr=udp%3A%2F%2Fexodus.desync.com%3A6969","seeders":0,"leechers":1,"uploader":"ettv","files":2,"time":1320470085,"description":"Video\nID                                       : 0\nFormat                                   : MPEG-4 Visual\nFormat profile                           : Advanced Simple@L5\nFormat settings, BVOP                    : 2\nFormat settings, QPel                    : No\nFormat settings, GMC                     : No warppoints\nFormat settings, Matrix                  : Default (H.263)\nCodec ID                                 : XVID\nCodec ID/Hint                            : XviD\nDuration                                 : 20mn 59s\nBit rate                                 : 1 005 Kbps\nWidth                                    : 624 pixels\nHeight                                   : 352 pixels\nDisplay aspect ratio                     : 16:9\nFrame rate                               : 23.976 fps\nColor space                              : YUV\nChroma subsampling                       : 4:2:0\nBit depth                                : 8 bits\nScan type                                : Progressive\nCompression mode                         : Lossy\nBits/(Pixel*Frame)                       : 0.191\nStream size                              : 151 MiB (86%)\nWriting library                          : XviD 70\n\nAudio\nID                                       : 1\nFormat                                   : MPEG Audio\nFormat version                           : Version 1\nFormat profile                           : Layer 3\nCodec ID                                 : 55\nCodec ID/Hint                            : MP3\nDuration                                 : 20mn 59s\nBit rate mode                            : Variable\nBit rate                                 : 148 Kbps\nChannel(s)                               : 2 channels\nSampling rate                            : 48.0 KHz\nCompression mode                         : Lossy\nStream size                              : 22.2 MiB (13%)\nAlignment                                : Aligned on interleaves\nInterleave, duration                     : 24 ms (0.58 video frame)\nInterleave, preload duration             : 10 ms","torrent":{"xt":"urn:btih:c43f2df91ceca94e6d4f7f6ffa200393397382ab","amp;dn":"X-Men+2011+S01E03+HDTV+XviD-LMAO%5Bettv%5D","amp;tr":["udp%3A%2F%2Ftracker.openbittorrent.com%3A80","udp%3A%2F%2Fopen.demonii.com%3A1337","udp%3A%2F%2Ftracker.coppersurfer.tk%3A6969","udp%3A%2F%2Fexodus.desync.com%3A6969"],"infoHash":"c43f2df91ceca94e6d4f7f6ffa200393397382ab","infoHashBuffer":{"type":"Buffer","data":[196,63,45,249,28,236,169,78,109,79,127,111,250,32,3,147,57,115,130,171]},"announce":[],"urlList":[]}}